<svg height="50pt" viewBox="0 -6 512 512" 
width="114pt" xmlns="http://www.w3.org/2000/svg"><path d="m379.84375 212.785156h-348.503906c-11.785156 0-21.339844 9.5625-21.339844 21.355469v235.492187c0 11.792969 9.554688 21.351563 21.339844 21.351563h348.503906c11.785156 0 21.339844-9.558594 21.339844-21.351563v-235.492187c0-11.792969-9.554688-21.355469-21.339844-21.355469zm0 0" fill="#52607e"/><path d="m116.25 439.035156h-49.511719v-174.296875h277.707031v174.296875h-170.351562" fill="#fcfcfc"/><path d="m502 464.460938-100.816406-51.300782v-122.546875l100.816406-51.296875zm0 0" fill="#50b4ff"/><path d="m407.15625 111.394531c0-56-45.359375-101.394531-101.3125-101.394531s-101.3125 45.394531-101.3125 101.394531c0 55.996094 45.359375 101.390625 101.3125 101.390625s101.3125-45.394531 101.3125-101.390625zm0 0" fill="#fdbf6c"/><path d="m305.84375 170.367188c-32.492188 0-58.929688-26.453126-58.929688-58.972657s26.4375-58.972656 58.929688-58.972656 58.925781 26.453125 58.925781 58.972656c0 32.515625-26.433593 58.972657-58.925781 58.972657zm0 0" fill="#fed99c"/><path d="m305.84375 180.367188c-38.007812 0-68.929688-30.941407-68.929688-68.972657 0-38.035156 30.921876-68.976562 68.929688-68.976562s68.925781 30.941406 68.925781 68.976562c0 38.03125-30.917969 68.972657-68.925781 68.972657zm0-117.945313c-26.980469 0-48.929688 21.96875-48.929688 48.972656 0 27.003907 21.949219 48.972657 48.929688 48.972657 26.976562 0 48.925781-21.96875 48.925781-48.972657 0-27.003906-21.949219-48.972656-48.925781-48.972656zm0 0"/><path d="m175.722656 133.082031c0-44.019531-35.65625-79.703125-79.640625-79.703125s-79.640625 35.683594-79.640625 79.703125 35.65625 79.703125 79.640625 79.703125 79.640625-35.683594 79.640625-79.703125zm0 0" fill="#f3756a"/><path d="m96.082031 170.367188c-20.542969 0-37.253906-16.726563-37.253906-37.285157 0-20.558593 16.710937-37.285156 37.253906-37.285156s37.257813 16.726563 37.257813 37.285156c0 20.558594-16.714844 37.285157-37.257813 37.285157zm0 0" fill="#fed99c"/><path d="m96.082031 180.367188c-26.054687 0-47.253906-21.210938-47.253906-47.285157 0-26.070312 21.199219-47.285156 47.253906-47.285156 26.058594 0 47.257813 21.214844 47.257813 47.285156 0 26.074219-21.199219 47.285157-47.257813 47.285157zm0-74.570313c-15.027343 0-27.253906 12.242187-27.253906 27.285156 0 15.046875 12.226563 27.285157 27.253906 27.285157 15.03125 0 27.257813-12.238282 27.257813-27.285157 0-15.042969-12.226563-27.285156-27.257813-27.285156zm0 0"/><path d="m299.359375 309.054688c-.648437 0-1.308594-.0625-1.960937-.191407-.628907-.128906-1.257813-.320312-1.867188-.570312-.601562-.25-1.183594-.558594-1.722656-.917969-.550782-.371094-1.058594-.78125-1.519532-1.25-.472656-.460938-.878906-.972656-1.25-1.523438-.359374-.539062-.671874-1.117187-.921874-1.71875-.25-.601562-.4375-1.230468-.566407-1.871093-.132812-.648438-.191406-1.296875-.191406-1.957031 0-.652344.058594-1.3125.191406-1.953126.128907-.636718.316407-1.269531.566407-1.867187.25-.601563.5625-1.191406.921874-1.730469.371094-.539062.777344-1.058594 1.25-1.519531.460938-.460937.96875-.882813 1.519532-1.242187.539062-.359376 1.121094-.667969 1.722656-.917969.609375-.25 1.238281-.441407 1.867188-.570313 1.289062-.261718 2.621093-.261718 3.910156 0 .640625.128906 1.269531.320313 1.871094.570313.609374.25 1.1875.558593 1.730468.917969.550782.359374 1.058594.78125 1.519532 1.242187.460937.460937.878906.980469 1.238281 1.519531.359375.550782.671875 1.128906.921875 1.730469s.4375 1.230469.570312 1.867187c.128906.652344.199219 1.300782.199219 1.953126 0 .660156-.070313 1.308593-.199219 1.957031-.132812.640625-.320312 1.273437-.570312 1.871093-.25.601563-.5625 1.179688-.921875 1.71875-.359375.550782-.777344 1.0625-1.238281 1.523438-.460938.46875-.96875.878906-1.519532 1.25-.542968.359375-1.121094.667969-1.730468.917969-.601563.25-1.230469.441406-1.871094.570312-.636719.128907-1.296875.191407-1.949219.191407zm0 0"/><path d="m66.738281 335.410156h63.996094v49.753906h-63.996094zm0 0" fill="#f3756a"/><path d="m130.734375 335.410156h64v49.753906h-64zm0 0" fill="#fed99c"/><path d="m344.445312 254.738281h-277.707031c-5.523437 0-10 4.476563-10 10v174.296875c0 5.523438 4.476563 10 10 10h49.511719c5.519531 0 10-4.476562 10-10 0-5.519531-4.480469-10-10-10h-39.511719v-33.871094h117.996094c5.523437 0 10-4.476562 10-10v-49.753906c0-5.519531-4.476563-10-10-10h-117.996094v-16.351562h179.480469c5.523438 0 10-4.476563 10-10 0-5.523438-4.476562-10-10-10h-179.480469v-14.320313h257.707031v154.296875h-160.351562c-5.523438 0-10 4.480469-10 10 0 5.523438 4.476562 10 10 10h170.351562c5.523438 0 10-4.476562 10-10v-174.296875c0-5.523437-4.476562-10-10-10zm-159.710937 120.425781h-44v-29.753906h44zm-64-29.753906v29.753906h-43.996094v-29.753906zm0 0"/><path d="m507.226562 230.789062c-2.964843-1.816406-6.660156-1.964843-9.761718-.386718l-86.28125 43.902344v-40.164063c0-17.289063-14.058594-31.355469-31.339844-31.355469h-10.429688c28.839844-20.148437 47.742188-53.601562 47.742188-91.390625 0-61.421875-49.933594-111.394531-111.3125-111.394531-61.375 0-111.3125 49.972656-111.3125 111.394531 0 37.789063 18.902344 71.242188 47.742188 91.390625h-89.828126c20.289063-16.457031 33.277344-41.589844 33.277344-69.703125 0-49.460937-40.210937-89.703125-89.636718-89.703125-49.429688 0-89.640626 40.242188-89.640626 89.703125 0 28.113281 12.988282 53.246094 33.277344 69.703125h-8.382812c-17.28125 0-31.339844 14.066406-31.339844 31.355469v235.492187c0 17.289063 14.058594 31.351563 31.339844 31.351563h348.503906c17.28125 0 31.339844-14.0625 31.339844-31.351563v-40.164062l86.28125 43.902344c1.429687.726562 2.984375 1.085937 4.535156 1.085937 1.816406 0 3.628906-.492187 5.226562-1.472656 2.964844-1.820313 4.773438-5.046875 4.773438-8.527344v-225.140625c0-3.480468-1.808594-6.707031-4.773438-8.527344zm-292.695312-119.394531c0-50.398437 40.960938-91.394531 91.3125-91.394531s91.3125 40.996094 91.3125 91.394531c0 50.394531-40.964844 91.390625-91.3125 91.390625-50.351562 0-91.3125-40.996094-91.3125-91.390625zm-188.089844 21.6875c0-38.433593 31.242188-69.703125 69.640625-69.703125 38.402344 0 69.640625 31.269532 69.640625 69.703125 0 38.4375-31.238281 69.703125-69.640625 69.703125-38.398437 0-69.640625-31.269531-69.640625-69.703125zm364.742188 336.550781c0 6.261719-5.085938 11.355469-11.339844 11.355469h-348.503906c-6.253906 0-11.339844-5.09375-11.339844-11.355469v-235.492187c0-6.261719 5.085938-11.355469 11.339844-11.355469h348.503906c6.253906 0 11.339844 5.097656 11.339844 11.355469zm100.816406-21.484374-80.816406-41.121094v-110.28125l80.816406-41.121094zm0 0"/>



</svg>